<svg width="55" height="55" viewBox="0 0 55 55" fill="none" xmlns="http://www.w3.org/2000/svg">
<g opacity="0.1">
<path d="M50.5634 2.14844L39.5526 5.35068L44.0106 2.3332C41.1962 2.96914 37.6405 4.21309 33.1718 6.2208L25.8778 13.8252L28.4667 8.51318C25.9638 9.90537 23.3104 11.7305 20.7538 13.8682L19.0565 20.7754L18.6913 15.6621C16.1669 17.9824 13.7929 20.5605 11.8271 23.2783C9.76133 26.125 8.14678 29.1328 7.33789 32.1299L4.31719 30.1103C4.58789 32.6562 5.42471 34.8691 6.79756 36.8994L3.18604 35.793C4.00674 38.3174 5.34844 39.9502 7.61719 41.2715C6.34639 44.8486 5.7502 48.5869 5.10996 52.3145L7.08652 52.6475C9.37891 29.7988 25.5556 15.2324 40.1757 8.77852L40.9169 10.6455C27.8437 16.5 17.6815 26.3828 12.3642 40.627C14.3085 40.6377 16.2099 40.4014 17.9716 39.9502L18.4979 33.4082L19.9052 39.3701C21.0761 38.9404 22.1503 38.4248 23.1063 37.8232L20.8827 33.1504L24.4062 36.8887C25.2655 36.2012 25.9745 35.4277 26.5116 34.5791C29.7772 29.4766 33.1933 24.4062 39.9179 20.1631L35.0087 18.4229L42.539 18.6484C43.7636 18.0254 45.0526 17.2627 46.0302 16.543L40.6913 16.1133L48.7157 14.2227C49.3388 13.5996 49.9188 12.9443 50.4452 12.2891C52.3036 9.93223 53.5604 7.47871 53.2597 5.24756C53.12 4.13145 52.454 3.08193 51.369 2.49434C51.1005 2.35469 50.8105 2.23115 50.5634 2.14844Z" fill="#222222"/>
</g>
</svg>
